name processed_emg_signals
nRows=91
nColumns=7
 
endheader
time	RGLTMED	RRF	RADDLONG	RBF	RTA	RGM
3.607800000000003	0.0121394132574246	0.021105565577648	0.0141255166654581	0.4546031554376622	0.912799984833122	0.1228889900431827
3.617800000000003	0.0121175766164654	0.0210330975278593	0.0141164856710496	0.4600228106570052	0.9147104869881676	0.1220578851994623
3.6278000000000032	0.0120975430823041	0.0209608377940346	0.0141084802195806	0.4652396625555288	0.916401656238162	0.1212224541350196
3.637800000000003	0.0120793213841155	0.0208887939276868	0.014101492221304	0.4702468286667313	0.9178656486465404	0.1203820059203407
3.647800000000003	0.012062916369307	0.0208169755530469	0.0140955130502358	0.4750376432978363	0.919094833230502	0.1195358710864807
3.657800000000003	0.0120483290074232	0.0207453944986363	0.014090533545632	0.4796056728571148	0.9200818160824572	0.1186834043396838
3.6678000000000033	0.0120355564030135	0.0206740649192861	0.0140865440132948	0.4839447310093909	0.920819464311107	0.1178239871528698
3.677800000000003	0.0120245918174972	0.0206030034082325	0.0140835342267613	0.4880488936138276	0.9213009297384273	0.1169570302312431
3.687800000000003	0.0120154247000263	0.0205322290989774	0.0140814934284016	0.4919125133963583	0.9215196722867708	0.1160819758503982
3.697800000000003	0.0120080407273017	0.02046176375668	0.0140804103304287	0.4955302343074096	0.9214694829888332	0.1151983000659748
3.7078000000000033	0.012002421852265	0.0203916318589494	0.0140802731157968	0.4988970055138633	0.921144506552508	0.1143055147942622
3.717800000000003	0.0119985463615539	0.0203218606660515	0.0140810694389337	0.5020080949725333	0.9205392634126994	0.1134031697632817
3.727800000000003	0.0119963889415963	0.0202524802806573	0.0140827864262261	0.5048591025308775	0.919648671203102	0.1124908543338167
3.737800000000003	0.0119959207531988	0.0201835236973309	0.014085410676146	0.5074459724992288	0.9184680655827204	0.1115681991896483
3.7478000000000034	0.0119971095144821	0.0201150268419603	0.0140889282588764	0.5097650056376218	0.9169932203544344	0.1106348778959432
3.757800000000003	0.0119999195919918	0.0200470286013123	0.0140933247152803	0.5118128704994607	0.915220366815687	0.1096906083243983
3.767800000000003	0.0120043120998062	0.0199795708428478	0.0140985850550389	0.5135866140740428	0.9131462122835182	0.1087351539434252
3.777800000000003	0.0120102450064347	0.0199126984248906	0.0141046937537769	0.5150836716708094	0.9107679577371484	0.1077683249713814
3.7878000000000034	0.0120176732492799	0.0198464591972072	0.0141116347489874	0.5163018759913293	0.9080833145214704	0.1067899793906402
3.797800000000003	0.0120265488564075	0.0197809039920433	0.0141193914345587	0.5172394653417077	0.9050905200545448	0.1058000238200998
3.807800000000003	0.0120368210753344	0.0197160866056594	0.01412794665373	0.517895090947661	0.9017883524814356	0.1047984142435482
3.817800000000003	0.0120484365085199	0.0196520637704213	0.0141372826903529	0.5182678233441445	0.8981761442153561	0.1037851565910698
3.8278000000000034	0.0120613392552049	0.019588895117512	0.0141473812584073	0.518357157818604	0.8942537943055701	0.102760307170417
3.837800000000003	0.0120754710592261	0.0195266431303408	0.0141582234897838	0.518163018891209	0.8900217795704701	0.1017239729449674
3.847800000000003	0.0120907714623841	0.0194653730887263	0.0141697899203883	0.5176857638178634	0.8854811644340833	0.1006763116546636
3.8578000000000032	0.0121071779629154	0.0194051530039414	0.0141820604746494	0.516926185103391	0.8806336094046179	0.099617531776365
3.8678000000000035	0.012124626178569	0.0193460535447411	0.0141950144485381	0.5158855120134959	0.8754813781346507	0.0985478923205021
3.8778000000000032	0.0121430500137542	0.0192881479545315	0.0142086304912313	0.5145654110749466	0.8700273430054283	0.0974677024619091
3.887800000000003	0.0121623818301941	0.0192315119598923	0.014222886585595	0.5129679855541157	0.8642749891840088	0.0963773210041298
3.8978000000000033	0.0121825526204873	0.0191762236707028	0.0142377600277012	0.5110957739048002	0.8582284171111623	0.0952771556783252
3.9078000000000035	0.0122034921839706	0.0191223634721332	0.014253227405634	0.5089517471773166	0.8518923433875895	0.094167662279973
3.9178000000000033	0.0122251293042546	0.0190700139087465	0.0142692645778771	0.5065393053820013	0.8452721000342298	0.09304934364855
3.927800000000003	0.0122473919277935	0.0190192595609289	0.0142858466515869	0.5038622728013541	0.8383736321093924	0.0919227484969751
3.9378000000000033	0.0122702073428467	0.0189701869138402	0.0143029479610686	0.5009248922470595	0.8312034936721125	0.0907884700986833
3.9478000000000035	0.012293502358178	0.0189228842190584	0.0143205420467625	0.497731818262932	0.8237688420878498	0.0896471448408384
3.9578000000000033	0.0123172034808416	0.0188774413490879	0.0143386016350557	0.4942881092839566	0.816077430679233	0.0884994506525572
3.967800000000003	0.0123412370923771	0.0188339496448697	0.0143570986192267	0.490599218774161	0.808137599731113	0.0873461053171592
3.9778000000000033	0.0123655296227299	0.0187925017564192	0.0143760040418242	0.4866709853788077	0.7999582658663085	0.0861878646774276
3.9878000000000036	0.012390007721189	0.0187531914767012	0.014395288078773	0.4825096221362058	0.7915489098166653	0.0850255207427163
3.9978000000000034	0.0124145984236178	0.0187161135688653	0.0144149200254824	0.4781217048004453	0.7829195626235498	0.0838598997065262
4.007800000000003	0.0124392293152477	0.0186813635869893	0.0144348682852378	0.4735141593297274	0.7740807903123451	0.0826918598829482
4.017800000000004	0.0124638286882838	0.01864903769053	0.014455100360148	0.4686942485969149	0.7650436770961923	0.0815222895701627
4.027800000000004	0.0124883256935865	0.0186192324527604	0.0144755828449194	0.4636695583798236	0.7558198071736203	0.0803521048489908
4.037800000000003	0.0125126504857149	0.0185920446635525	0.0144962814237126	0.4584479826887753	0.7464212451913023	0.0791822473242944
4.047800000000003	0.0125367343607243	0.0185675711269125	0.0145171608703161	0.4530377084883409	0.7368605154467327	0.0780136818168091
4.057800000000004	0.0125605098862811	0.0185459084537067	0.0145381850518417	0.4474471998693916	0.7271505799073589	0.0768473940127762
4.067800000000004	0.0125839110238486	0.0185271528500149	0.014559316936115	0.441685181726585	0.7173048151237621	0.0756843880785204
4.077800000000003	0.0126068732428578	0.0185113999015467	0.0145805186029029	0.4357606229951982	0.7073369881151996	0.0745256842469048
4.087800000000003	0.0126293336268565	0.018498744354559	0.0146017512590955	0.4296827194997933	0.6972612313060331	0.0733723163823904
4.097800000000004	0.0126512309716885	0.0184892798937224	0.0146229752579406	0.4234608764656934	0.687092016591248	0.0722253295312087
4.107800000000004	0.0126725058757805	0.0184830989173909	0.0146441501224128	0.4171046907427164	0.6768441286087274	0.0710857774629488
4.1178000000000035	0.0126931008226331	0.0184802923107332	0.0146652345727799	0.4106239327890971	0.6665326372955481	0.0699547202096537
4.127800000000003	0.0127129602556228	0.0184809492171884	0.0146861865584099	0.4040285284619749	0.6561728698052933	0.0688332216083099
4.137800000000004	0.0127320306452141	0.0184851568087195	0.0147069632938501	0.3973285406592426	0.6457803818627653	0.0677223468523994
4.147800000000004	0.0127502605487111	0.0184930000553257	0.0147275212992037	0.3905341508559747	0.6353709286312298	0.066623160057964
4.1578000000000035	0.0127676006627072	0.0185045614942794	0.0147478164448228	0.3836556405771326	0.624960435165669	0.0655367218494152
4.167800000000003	0.0127840038684683	0.0185199209995165	0.0147678040003213	0.3767033728467945	0.6145649665238873	0.0644640869701143
4.177800000000003	0.012799425270533	0.0185391555515916	0.0147874386879011	0.369687773652712	0.604200697605914	0.0634063019225373
4.187800000000004	0.0128138222288733	0.0185623390085771	0.0148066747399547	0.362619313463554	0.5938838827908236	0.0623644026426311
4.1978000000000035	0.0128271543849639	0.0185895418782965	0.0148254659609103	0.3555084888347266	0.583630825438638	0.0613394122127354
4.207800000000003	0.012839383682119	0.0186208310923043	0.0148437657932541	0.3483658041371972	0.5734578473234273	0.0603323386172207
4.217800000000004	0.0128504743804275	0.0186562697820707	0.0148615273876639	0.3412017534422858	0.5633812580620986	0.0593441725447572
4.227800000000004	0.0128603930666036	0.01869591705787	0.0148787036771694	0.3340268025939454	0.5534173246016963	0.0583758852409061
4.237800000000004	0.0128691086590427	0.0187398277908811	0.0148952474552302	0.326851371498636	0.5435822408262043	0.057428426414504
4.247800000000003	0.0128765924083617	0.0187880523990381	0.0149111114576102	0.3196858166614977	0.5338920973418998	0.0565027222010934
4.257800000000003	0.0128828178936862	0.0188406366371707	0.0149262484478896	0.312540413996156	0.5243628514983409	0.0555996731864455
4.267800000000004	0.0128877610149558	0.0188976213919756	0.0149406113064285	0.3054253419341645	0.5150102977001372	0.0547201524930304
4.277800000000004	0.0128913999815135	0.0189590424823637	0.0149541531225615	0.2983506648587877	0.5058500380627363	0.0538650039321045
4.287800000000003	0.0128937152972457	0.0190249304657131	0.01496682728977	0.2913263168865967	0.4968974534634847	0.0530350402239353
4.297800000000004	0.0128946897425394	0.0190953104505418	0.0149785876035605	0.2843620860191265	0.4881676750372387	0.0522310412885468
4.307800000000004	0.0128943083532993	0.0191702019161013	0.014989388361751	0.2774675986856831	0.4796755561638052	0.0514537526092432
4.317800000000004	0.0128925583972611	0.0192496185393524	0.014999184466847	0.270652304697217	0.4714356449925602	0.0507038836710401
4.327800000000003	0.0128894293478113	0.0193335680297826	0.0150079315301683	0.2639254626300326	0.4634621575477123	0.0499821064759756
4.337800000000003	0.0128849128555216	0.0194220519725036	0.0150155859773558	0.2572961256569775	0.4557689514558756	0.0492890541371085
4.347800000000004	0.0128790027175925	0.0195150656800816	0.015022105154861	0.2507731278426431	0.4483695003358796	0.0486253195528627
4.357800000000004	0.012871694845406	0.0196125980535721	0.0150274474369933	0.2443650709180393	0.4412768688890719	0.0479914541632207
4.3678000000000035	0.0128629872303876	0.0197146314532943	0.0150315723330807	0.2380803115491656	0.4345036887267274	0.0473879667891472
4.377800000000004	0.0128528799083738	0.019821141579932	0.0150344405942729	0.2319269491128868	0.4280621349695482	0.0468153225564892
4.387800000000004	0.0128413749226785	0.0199320973665913	0.015036014319496	0.2259128139925431	0.4219639036526332	0.046273941905479
4.397800000000004	0.0128284762860343	0.0200474608824436	0.0150362570600486	0.220045456404759	0.4162201899676797	0.0457641996868341
4.4078000000000035	0.0128141899415749	0.0201671872485537	0.0150351339223233	0.2143321357679737	0.4108416673725736	0.0452864243453004
4.417800000000003	0.0127985237229888	0.0202912245664582	0.0150326116681394	0.2087798106223098	0.4058384675969112	0.0448408971913497
4.427800000000004	0.0127814873139554	0.0204195138600208	0.0150286588121691	0.2033951291095135	0.4012201615703679	0.0444278517615904
4.437800000000004	0.0127630922069513	0.0205519890310736	0.0150232457159333	0.1981844200208473	0.3969957412992235	0.0440474732683281
4.4478000000000035	0.0127433516614912	0.0206885768293368	0.0150163446778192	0.1931536844199751	0.393173602714766	0.0436998981385721
4.457800000000004	0.0127222806618561	0.0208291968371047	0.0150079300185484	0.1883085878470488	0.3897615295157393	0.0433852136426509
4.467800000000004	0.0126998958743321	0.02097376146916	0.0149979781615	0.1836544531094046	0.3867666780254603	0.0431034576124596
4.477800000000004	0.0126762156039631	0.0211221759883515	0.0149864677072706	0.1791962536634831	0.3841955630827294	0.0428546182492176
4.487800000000004	0.0126512597507851	0.0212743385372343	0.0149733795018398	0.1749386075918427	0.3820540449841603	0.0426386340204844
4.497800000000003	0.0126250497654813	0.0214301401861224	0.0149586966977112	0.1708857721784049	0.3803473174940853	0.0424553936460526
4.507800000000004	0.0125976086043682	0.0215894649978636	0.0149424048074301	0.1670416390843786	0.3790798969367475	0.0423047361722444
